<?xml version="1.0" encoding="utf-8"?>
<!-- Generator: Adobe Illustrator 22.0.0, SVG Export Plug-In . SVG Version: 6.00 Build 0)  -->
<svg version="1.1" id="Layer_1" xmlns="http://www.w3.org/2000/svg" xmlns:xlink="http://www.w3.org/1999/xlink" x="0px" y="0px"
	 viewBox="0 0 1920 1080" style="enable-background:new 0 0 1920 1080;" xml:space="preserve">
<style type="text/css">
	.st0{fill:#FFFFFF;}
	.st1{fill:#3C6178;}
</style>
<g>
	<path class="st0" d="M1195,759c-166.7,0-333.3,0-499.9,0c0-166.7,0-333.3,0-499.9c166.7,0,333.3,0,499.9,0
		C1195,425.7,1195,592.4,1195,759z M1061.5,285.6c-13.2,0-26.2-0.1-39.3,0c-15.3,0.2-30.6,0.7-45.9,0.9c-8.6,0.1-17.3-0.2-25.9-0.2
		c-6.3,0-12.6,0-18.9,0.1c-8.8,0-17.5-0.1-26.3,0.2c-6,0.2-11.9,1.2-17.9,1.4c-17.1,0.5-34.3,0.8-51.4,1.2
		c-10.1,0.3-20.2,0.7-30.4,1.1c-5.8,0.2-12-0.7-17.2,1.2c-8.5,3.1-16.7,7.4-24.3,12.3c-9.5,6.2-18.3,13.5-27.4,20.3
		c-3.1,2.3-6.2,4.6-9.3,7c4.2,5.7,8.7,1.7,12.5,1.5c-0.4,4.2-0.8,8.2-1.2,12.8c-1.9-0.2-3.7,0-5-0.7c-4.1-2.2-7.5-0.8-10.7,1.6
		c-5.6,4-6.1,10.1-5.7,16.2c0.9,12.4,1.9,24.8,3.4,37.1c1.2,10,3.1,19.9,5,29.7c1.5,7.5,3.6,14.9,5.6,23.2
		c-3.2,3.9-7.4,8.9-11.5,13.9c0.4,0.4,0.8,0.9,1.1,1.3c6-2.2,12.5-3.5,17.8-6.9c10.7-6.9,21.1-14.6,30.9-22.7
		c15.9-13.1,31-27.2,46.8-40.3c6.8-5.6,13.8-11.7,23.4-12.7c3.5-0.4,6.9-1.2,10.2-2.3c14.1-4.6,20.6,5.1,25.4,18.1
		c-4.4,0.8-8.9,1.2-13.1,2.5c-25.2,8.1-46.5,22.5-65.4,40.8c-14.6,14.1-31.4,25.1-48.9,35c-10.1,5.8-18.2,13.3-22.8,24.2
		c-2.9,6.8-2,8.1,5.1,9.1c0.4,0.1,0.8,0.5,1.6,0.9c-0.8,1.7-1.4,3.4-2.4,4.8c-3.1,4.2-7.2,7.9-7.1,13.9c0,0.7-1.4,1.7-2.4,2
		c-5.5,1.7-9.4,5.8-9.6,11.1c-0.5,16.3-0.1,32.5,5.1,48.3c1,3,1.5,6.1,2.3,9.2c0.6,0.2,1.3,0.4,1.9,0.6c3.9-4.7,7.7-9.5,11.7-14.1
		c1.1-1.2,3-2.3,4.5-2.3c18.3,0.6,35.8-4.2,53.5-7.5c22.5-4.2,45.2-8,67.9-11.1c19.4-2.7,39-4.5,58.5-6.1c23.8-2,47.6-3.5,71.4-5
		c18.6-1.2,37.2-2.1,55.8-2.9c10-0.4,20-0.1,30-0.5c5.1-0.2,10.2-1.1,15.2-2.3c3.1-0.8,5.9-2.6,8.8-4.1c1.9-1,3.7-2.2,6.2-3.6
		c5,4.1,10.6,3.4,16.6-0.7c3.4-2.3,7.7-3.2,11.6-4.7c1.4-0.5,2.9-0.9,4.1-1.7c5.3-3.3,10.8-6.4,15.8-10.2c2.9-2.2,6.8-4.5,5.4-9.4
		c-2.2-7.5-0.8-14.7,0.9-22c1.5-6.2,4.5-12.1,2.9-18.7c-0.9-3.7-2.7-7.4-2.3-11c0.4-4.1-2.4-5.1-4.4-5c-2.6,0.1-6.6,1.5-7.3,3.4
		c-2.2,5.8-7.8,5.4-11,5c-7-1-13.7-3.9-20.4-6.5c-3.4-1.3-3.7-5.1-0.4-7.4c-8-4.7-16.2-8.6-23.3-13.9c-6.3-4.7-13.3-10.1-16.5-16.8
		c-4.2-8.7-11.1-11.8-18.6-14.6c-8.3-3.1-16.3,0.5-23.2,4.7c-12.6,7.7-24.4,16.8-37.2,24.1c-16.4,9.4-33.4,17.8-50.3,26.5
		c-1.9,1-4.5,1.1-6.8,0.9c-10.7-1-23.5-13.2-25.3-23.4c5-1.8,9.8-3.5,14.7-5.2c11-3.9,22.2-7,32.8-11.7c13.3-6,26.1-13.1,38.9-20
		c13.8-7.4,27.2-15.4,41-22.8c11-5.9,14.6-5.2,23,4c1.7,1.8,3.3,3.8,4.4,6c7.7,15.8,21.4,26.6,32.8,39.2c2.3,2.6,5.4,3.6,8.7,0.4
		c1.4-1.4,4.1-2.6,5.7-2.2c5.4,1.2,9.2-1.4,13.2-4.1c7.4-4.9,14.8-9.7,22-14.3c-1.1-2.5-2.1-4-2.3-5.5c-0.1-1.1,0.6-2.9,1.5-3.4
		c6.1-3.1,12.6-5.6,18.4-9.1c2.6-1.6,5.7-5.2,5.6-7.8c-0.2-7.2-2-14.4-3-21.7c-1-7.2-1.8-14.5-2.5-21.7c-0.2-2.4,0.2-4.8,0.4-7.2
		c0.5,0,0.9,0,1.4,0.1c0.3,4.3,0.6,8.5,0.8,12.8c0.5-14.3,0.1-28.4-0.8-42.6c-0.2-3.8-1.2-7.9-3.2-11.1c-1.4-2.2-5-2.9-7.9-4.4
		c-2.5,4.5-6.1,3.9-9.6,2.5c-10.4-4.1-21.3-5.2-32.4-5.3c-9.8-0.1-19.6-0.2-29.4-0.5c-7.1-0.2-14.2-0.8-20.1-1.1
		c-0.3,1.9-0.1,3.9-0.9,4.5c-1.7,1.3-4,2.6-6,2.5c-16.3-0.2-32.6-0.7-49-1.2c-1.1,0-2.1-0.6-3.2-0.9c0.1-0.5,0.1-0.9,0.2-1.4
		c8.8-0.4,17.9,0.2,26.5-1.6c5.5-1.2,10.2,3.9,15.3,0.5c0.3-0.2,1.2,0.4,1.8,0.8C1057.1,290.8,1059.1,290.2,1061.5,285.6z
		 M994.6,665.8c-1.5-1.8-2.7-3.2-3.8-4.6c-9.8-12.2-19.5-24.5-29.3-36.7c-1.1-1.3-2.7-2.9-4.2-3c-7.1-0.3-14.2-0.1-21.5-0.1
		c0,36.8,0,73,0,109.1c8.8,0,17.2,0,26.2,0c0-22.4,0-44.4,0-66.4c0.4-0.1,0.7-0.3,1.1-0.4c10.4,13,20.8,26.1,31.5,39.4
		c10.8-13.3,21.3-26.3,31.8-39.3c0.5,0.1,0.9,0.2,1.4,0.4c0,22.1,0,44.2,0,66.3c9.3,0,17.7,0,26.4,0c0-2,0-3.6,0-5.3
		c0-23.6,0-47.3,0-70.9c0-9.2-0.2-18.3,0.1-27.5c0.2-4.5-1.4-5.8-5.7-5.5c-4.8,0.4-9.7-0.3-14.5,0.2c-2.3,0.2-5.1,1.5-6.5,3.2
		c-10,12.1-19.6,24.4-29.4,36.6C997.3,662.7,996.1,664.1,994.6,665.8z M1134.4,692.8c2.1,0,3.6,0,5.1,0c11.5,0.1,12.2,0.8,10.5,12.4
		c-0.2,1.2-1.3,2.9-2.3,3.3c-20.1,8.2-45.6,0-48.8-25.7c-0.5-4.1-0.4-8.3-0.1-12.5c1.2-14.6,10.8-25.5,25.2-28.6
		c9.6-2.1,19.3-1.7,28.6,1.3c7.7,2.4,15.2,5.3,23.1,8.1c0-6.5-0.2-12.9,0.1-19.2c0.2-3.5-1.3-5-4.2-6.2c-14.8-6.3-30.1-9-46.3-7.8
		c-28,2-55.2,20.5-55.5,57.2c-0.2,23.5,11.5,44.6,31.4,53.1c25.5,10.9,50,8.3,73.5-6.2c2.6-1.6,3.4-3.5,3.4-6.5
		c-0.1-12.8,0-25.7-0.1-38.5c0-1.4-0.3-2.8-0.4-4.6c-13.7,0-27-0.1-40.3,0.1c-0.9,0-2.6,1.6-2.7,2.5
		C1134.3,680.8,1134.4,686.6,1134.4,692.8z M718.4,621.6c0,24.4-0.5,48.2,0.2,72c0.4,11.5,6,21.3,15.3,28.7
		c17.9,14.3,53.5,14.4,71.3-0.2c11.9-9.7,15.8-23,15.8-37.8c0-19.3,0-38.7,0-58c0-1.6-0.2-3.2-0.4-4.7c-9,0-17.4,0-26.4,0
		c0,2.2,0,4.2,0,6.1c0,19.5,0.2,39-0.2,58.5c-0.2,12.6-6.3,20.5-16.7,23.2c-18.4,4.8-32.4-5.8-32.6-25c-0.1-19.2,0-38.3,0-57.5
		c0-1.8,0-3.5,0-5.4C735.6,621.6,727.1,621.6,718.4,621.6z M913.3,664.2c-2.4,0-4.2,0-6,0c-11,0-22-0.1-33,0.1
		c-3.7,0.1-5-1.2-4.8-4.9c0.3-4.6,0.2-9.3,0-14c-0.2-3.5,1.2-4.6,4.6-4.6c12,0.1,24,0.1,36,0c1.8,0,3.5-0.2,5.4-0.2
		c0-6.6,0-12.6,0-18.9c-24.2,0-48.1,0-72,0c0,36.4,0,72.5,0,108.8c24.5,0,48.8,0,73.2,0c0-6.5,0-12.8,0-19.6c-2.3,0-4.2,0-6.2,0
		c-12,0-24-0.1-36,0.1c-3.9,0.1-5.3-1.2-5.1-5.2c0.3-5.8,0.2-11.7,0-17.5c-0.1-3.3,1.2-4.4,4.4-4.3c11.3,0.1,22.7,0.1,34,0
		c1.8,0,3.5-0.2,5.5-0.3C913.3,677.1,913.3,671,913.3,664.2z"/>
	<path class="st1" d="M1061.5,285.6c-2.4,4.6-4.5,5.2-8.9,2.8c-0.6-0.3-1.5-1-1.8-0.8c-5.1,3.4-9.8-1.7-15.3-0.5
		c-8.5,1.8-17.6,1.2-26.5,1.6c-0.1,0.5-0.1,0.9-0.2,1.4c1.1,0.3,2.1,0.8,3.2,0.9c16.3,0.5,32.6,1,49,1.2c2,0,4.3-1.3,6-2.5
		c0.8-0.6,0.6-2.6,0.9-4.5c5.9,0.3,13,0.9,20.1,1.1c9.8,0.3,19.6,0.5,29.4,0.5c11.1,0.1,21.9,1.2,32.4,5.3c3.5,1.4,7.2,2,9.6-2.5
		c2.9,1.5,6.5,2.3,7.9,4.4c2,3.1,3,7.3,3.2,11.1c0.9,14.2,1.3,28.3,0.8,42.6c-0.3-4.3-0.6-8.5-0.8-12.8c-0.5,0-0.9,0-1.4-0.1
		c-0.1,2.4-0.6,4.8-0.4,7.2c0.7,7.3,1.5,14.5,2.5,21.7c1,7.2,2.8,14.4,3,21.7c0.1,2.6-3,6.3-5.6,7.8c-5.8,3.5-12.3,6-18.4,9.1
		c-0.9,0.5-1.6,2.3-1.5,3.4c0.2,1.6,1.2,3.1,2.3,5.5c-7.2,4.7-14.6,9.5-22,14.3c-4,2.7-7.8,5.3-13.2,4.1c-1.7-0.4-4.4,0.9-5.7,2.2
		c-3.3,3.2-6.4,2.2-8.7-0.4c-11.4-12.7-25.1-23.5-32.8-39.2c-1.1-2.2-2.8-4.2-4.4-6c-8.3-9.2-11.9-10-23-4
		c-13.8,7.4-27.2,15.4-41,22.8c-12.8,6.9-25.6,14.1-38.9,20c-10.6,4.7-21.8,7.9-32.8,11.7c-4.9,1.7-9.7,3.5-14.7,5.2
		c1.8,10.2,14.6,22.4,25.3,23.4c2.2,0.2,4.8,0.1,6.8-0.9c16.9-8.6,33.9-17,50.3-26.5c12.8-7.4,24.6-16.5,37.2-24.1
		c6.9-4.2,14.9-7.9,23.2-4.7c7.5,2.8,14.4,6,18.6,14.6c3.2,6.7,10.2,12.1,16.5,16.8c7.1,5.3,15.3,9.2,23.3,13.9
		c-3.3,2.3-3,6.1,0.4,7.4c6.7,2.6,13.4,5.5,20.4,6.5c3.3,0.5,8.8,0.8,11-5c0.7-1.9,4.7-3.3,7.3-3.4c1.9-0.1,4.7,0.9,4.4,5
		c-0.3,3.5,1.5,7.3,2.3,11c1.6,6.6-1.4,12.6-2.9,18.7c-1.8,7.3-3.1,14.6-0.9,22c1.4,4.8-2.5,7.2-5.4,9.4c-5,3.8-10.4,6.9-15.8,10.2
		c-1.2,0.8-2.8,1.1-4.1,1.7c-3.9,1.5-8.2,2.5-11.6,4.7c-6,4-11.6,4.8-16.6,0.7c-2.5,1.5-4.3,2.6-6.2,3.6c-2.9,1.5-5.7,3.4-8.8,4.1
		c-5,1.2-10.1,2.1-15.2,2.3c-10,0.4-20,0.1-30,0.5c-18.6,0.8-37.2,1.7-55.8,2.9c-23.8,1.5-47.7,3-71.4,5
		c-19.6,1.6-39.1,3.4-58.5,6.1c-22.7,3.1-45.3,7-67.9,11.1c-17.7,3.3-35.2,8-53.5,7.5c-1.5,0-3.5,1.1-4.5,2.3
		c-4.1,4.6-7.8,9.4-11.7,14.1c-0.6-0.2-1.3-0.4-1.9-0.6c-0.8-3.1-1.3-6.2-2.3-9.2c-5.2-15.7-5.6-31.9-5.1-48.3
		c0.2-5.3,4.1-9.4,9.6-11.1c1-0.3,2.4-1.3,2.4-2c-0.1-5.9,4-9.6,7.1-13.9c1-1.4,1.6-3.2,2.4-4.8c-0.8-0.5-1.2-0.9-1.6-0.9
		c-7.2-0.9-8-2.3-5.1-9.1c4.6-10.9,12.7-18.4,22.8-24.2c17.5-9.9,34.3-20.9,48.9-35c18.9-18.2,40.2-32.7,65.4-40.8
		c4.2-1.3,8.7-1.7,13.1-2.5c-4.8-13-11.3-22.7-25.4-18.1c-3.3,1.1-6.8,1.9-10.2,2.3c-9.6,1-16.5,7-23.4,12.7
		c-15.9,13.1-31,27.1-46.8,40.3c-9.8,8.1-20.2,15.8-30.9,22.7c-5.2,3.4-11.8,4.7-17.8,6.9c-0.4-0.4-0.8-0.9-1.1-1.3
		c4.1-5,8.2-9.9,11.5-13.9c-2-8.3-4.1-15.7-5.6-23.2c-2-9.9-3.8-19.8-5-29.7c-1.5-12.3-2.5-24.7-3.4-37.1
		c-0.4-6.1,0.1-12.2,5.7-16.2c3.2-2.3,6.6-3.7,10.7-1.6c1.3,0.7,3.1,0.5,5,0.7c0.4-4.5,0.8-8.5,1.2-12.8c-3.9,0.1-8.3,4.2-12.5-1.5
		c3.2-2.4,6.2-4.7,9.3-7c9.1-6.8,17.9-14.1,27.4-20.3c7.6-4.9,15.8-9.2,24.3-12.3c5.2-1.9,11.4-1,17.2-1.2
		c10.1-0.4,20.2-0.8,30.4-1.1c17.1-0.4,34.3-0.7,51.4-1.2c6-0.2,11.9-1.2,17.9-1.4c8.8-0.3,17.5-0.1,26.3-0.2
		c6.3,0,12.6-0.1,18.9-0.1c8.6,0,17.3,0.3,25.9,0.2c15.3-0.2,30.6-0.7,45.9-0.9C1035.3,285.5,1048.4,285.6,1061.5,285.6z
		 M779.5,407.6c2.3-1.8,3.8-3.1,5.3-4.3c9.2-7.6,18.3-15.3,27.6-22.8c19.5-15.6,40.8-27.6,65.9-31.5c8.4-1.3,17.1-2.7,25.5,1
		c9.7,4.4,17.2,11,22.5,20.4c2.5,4.4,5.8,8.3,9,12.2c5.2,6.2,10.8,12.2,16.1,18.4c4.1,4.8,6.9,5.8,12.5,2.9
		c16.2-8.5,32.3-16.9,48.2-25.8c18.2-10.2,36.4-20.5,56.3-27.3c14.7-5,28.7-5.8,41.3,5.2c0.3,0.3,0.9,0.3,1.9,0.5
		c0-11.2,0-22.2,0-33c-4.5-0.6-8.3-1.1-12-1.7c-8-1.2-15.9-3.1-24-3.5c-9.1-0.5-18.3,0.3-27.4,0.5c-16.6,0.5-33.3,0.7-49.9,1.5
		c-16.4,0.9-32.8,3-49.3,3.5c-14.8,0.5-29.6-0.7-44.4-0.7c-7.6,0-15.2,1.1-22.8,1.6c-17.4,0.9-34.9,1.6-52.3,2.6
		c-19.9,1.1-39.9,2.5-59.8,3.8c-5.6,0.4-5.9,1.8-4.2,8.1c2.8,10.4,5.3,20.8,7.2,31.4c1.9,10.3,2.7,20.7,4.3,31.1
		C777.2,403.4,778.4,405.2,779.5,407.6z"/>
	<path class="st1" d="M994.6,665.8c1.4-1.7,2.6-3,3.7-4.4c9.8-12.2,19.4-24.6,29.4-36.6c1.4-1.7,4.2-3,6.5-3.2
		c4.8-0.5,9.7,0.1,14.5-0.2c4.3-0.3,5.9,1,5.7,5.5c-0.3,9.1-0.1,18.3-0.1,27.5c0,23.6,0,47.3,0,70.9c0,1.7,0,3.3,0,5.3
		c-8.7,0-17.1,0-26.4,0c0-22.1,0-44.2,0-66.3c-0.5-0.1-0.9-0.2-1.4-0.4c-10.5,13-21.1,26-31.8,39.3c-10.7-13.3-21.1-26.4-31.5-39.4
		c-0.4,0.1-0.7,0.3-1.1,0.4c0,22,0,44,0,66.4c-9,0-17.4,0-26.2,0c0-36.1,0-72.3,0-109.1c7.3,0,14.4-0.2,21.5,0.1
		c1.4,0.1,3.1,1.7,4.2,3c9.8,12.2,19.6,24.4,29.3,36.7C991.9,662.6,993.1,664,994.6,665.8z"/>
	<path class="st1" d="M1134.4,692.8c0-6.2-0.1-12,0.1-17.8c0-0.9,1.7-2.5,2.7-2.5c13.3-0.2,26.6-0.1,40.3-0.1
		c0.2,1.8,0.4,3.2,0.4,4.6c0,12.8-0.1,25.7,0.1,38.5c0,3-0.8,4.9-3.4,6.5c-23.5,14.5-48.1,17.1-73.5,6.2
		c-20-8.5-31.6-29.6-31.4-53.1c0.3-36.7,27.5-55.2,55.5-57.2c16.2-1.2,31.5,1.6,46.3,7.8c3,1.3,4.4,2.7,4.2,6.2
		c-0.3,6.3-0.1,12.6-0.1,19.2c-7.9-2.8-15.4-5.7-23.1-8.1c-9.4-2.9-19-3.4-28.6-1.3c-14.4,3.1-24,14-25.2,28.6
		c-0.3,4.1-0.4,8.4,0.1,12.5c3.2,25.7,28.7,33.9,48.8,25.7c1.1-0.4,2.1-2.1,2.3-3.3c1.7-11.6,1-12.4-10.5-12.4
		C1138,692.8,1136.6,692.8,1134.4,692.8z"/>
	<path class="st1" d="M718.4,621.6c8.8,0,17.2,0,26.4,0c0,1.9,0,3.7,0,5.4c0,19.2-0.1,38.3,0,57.5c0.1,19.2,14.1,29.8,32.6,25
		c10.4-2.7,16.5-10.6,16.7-23.2c0.4-19.5,0.2-39,0.2-58.5c0-2,0-3.9,0-6.1c9,0,17.4,0,26.4,0c0.1,1.6,0.4,3.2,0.4,4.7
		c0,19.3,0,38.7,0,58c0,14.8-3.9,28.1-15.8,37.8c-17.8,14.5-53.4,14.5-71.3,0.2c-9.3-7.4-14.9-17.2-15.3-28.7
		C717.8,669.8,718.4,646,718.4,621.6z"/>
	<path class="st1" d="M913.3,664.2c0,6.8,0,12.9,0,19.5c-2,0.1-3.7,0.3-5.5,0.3c-11.3,0-22.7,0.1-34,0c-3.2,0-4.5,1-4.4,4.3
		c0.2,5.8,0.3,11.7,0,17.5c-0.2,4,1.2,5.2,5.1,5.2c12-0.2,24-0.1,36-0.1c2,0,3.9,0,6.2,0c0,6.8,0,13.1,0,19.6c-24.5,0-48.7,0-73.2,0
		c0-36.3,0-72.3,0-108.8c23.9,0,47.8,0,72,0c0,6.2,0,12.3,0,18.9c-1.8,0.1-3.6,0.2-5.4,0.2c-12,0-24,0.1-36,0
		c-3.4,0-4.8,1.1-4.6,4.6c0.2,4.7,0.3,9.3,0,14c-0.2,3.7,1.1,5,4.8,4.9c11-0.2,22-0.1,33-0.1C909.1,664.2,910.9,664.2,913.3,664.2z"
		/>
	<path class="st0" d="M779.5,407.6c-1.1-2.4-2.3-4.1-2.6-6c-1.5-10.3-2.4-20.8-4.3-31.1c-1.9-10.6-4.4-21-7.2-31.4
		c-1.7-6.3-1.4-7.7,4.2-8.1c19.9-1.3,39.9-2.7,59.8-3.8c17.4-1,34.9-1.7,52.3-2.6c7.6-0.4,15.2-1.6,22.8-1.6
		c14.8,0,29.6,1.2,44.4,0.7c16.4-0.5,32.8-2.6,49.3-3.5c16.6-0.9,33.3-1.1,49.9-1.5c9.1-0.3,18.3-1,27.4-0.5c8,0.4,16,2.3,24,3.5
		c3.7,0.6,7.5,1.1,12,1.7c0,10.8,0,21.8,0,33c-1-0.3-1.6-0.3-1.9-0.5c-12.6-11-26.6-10.2-41.3-5.2c-19.9,6.8-38.1,17.1-56.3,27.3
		c-15.9,8.9-32.1,17.4-48.2,25.8c-5.6,2.9-8.4,1.9-12.5-2.9c-5.3-6.2-10.8-12.1-16.1-18.4c-3.3-3.9-6.6-7.8-9-12.2
		c-5.3-9.4-12.7-16-22.5-20.4c-8.4-3.8-17.1-2.4-25.5-1c-25,3.9-46.4,15.9-65.9,31.5c-9.3,7.5-18.4,15.2-27.6,22.8
		C783.3,404.5,781.7,405.7,779.5,407.6z"/>
</g>
</svg>
